<svg width="21" height="20" viewBox="0 0 21 20" fill="none" xmlns="http://www.w3.org/2000/svg">
<path d="M11.7457 1.51001L13.5057 5.03001C13.7457 5.52001 14.3857 5.99001 14.9257 6.08001L18.1157 6.61001C20.1557 6.95001 20.6357 8.43001 19.1657 9.89001L16.6857 12.37C16.2657 12.79 16.0357 13.6 16.1657 14.18L16.8757 17.25C17.4357 19.68 16.1457 20.62 13.9957 19.35L11.0057 17.58C10.4657 17.26 9.57566 17.26 9.02566 17.58L6.03566 19.35C3.89566 20.62 2.59566 19.67 3.15566 17.25L3.86566 14.18C3.99566 13.6 3.76566 12.79 3.34566 12.37L0.865656 9.89001C-0.594344 8.43001 -0.124344 6.95001 1.91566 6.61001L5.10566 6.08001C5.63566 5.99001 6.27566 5.52001 6.51566 5.03001L8.27566 1.51001C9.23566 -0.399985 10.7957 -0.399985 11.7457 1.51001Z" fill="#171717"/>
</svg>
